<?xml version="1.0" encoding="UTF-8" standalone="no"?>
<!-- Created with Inkscape (http://www.inkscape.org/) -->

<svg
   version="1.1"
   id="svg2"
   width="1122.5197"
   height="793.70081"
   viewBox="0 0 1122.5197 793.70081"
   xmlns="http://www.w3.org/2000/svg"
   xmlns:svg="http://www.w3.org/2000/svg">
  <defs
     id="defs6" />
  <g
     id="g8"
     transform="matrix(1.3333333,0,0,-1.3333333,0,793.7008)">
    <path
       d="m 605.2598,295.0605 -5.7025,29.9668 c -1.542,8.1547 -6.5625,12.2488 -15.0698,12.27 h -12.2341 c -0.5578,0 -1.0227,-0.29 -1.3946,-0.8807 -0.3719,-0.5913 -0.5579,-1.2679 -0.5579,-2.0415 v -39.3146 c 0,-0.8274 0.209,-1.5148 0.6353,-2.063 0.4263,-0.5587 0.9295,-0.8379 1.5185,-0.8379 h 4.2693 c 0.6196,0 1.131,0.2792 1.5341,0.8379 0.4031,0.5482 0.6043,1.2574 0.6043,2.1169 v 7.9401 h 16.1391 l 1.5185,-7.9401 c 0.1474,-0.8595 0.4881,-1.5687 1.0227,-2.1169 0.527,-0.5587 1.0849,-0.8379 1.6736,-0.8379 h 4.4782 c 0.589,0 1.0074,0.2364 1.2708,0.7089 0.2556,0.4728 0.3798,0.8813 0.3719,1.2464 -0.008,0.3546 -0.0309,0.6664 -0.0774,0.9456 z m -75.2497,-0.1168 v 39.1961 c 0,0.817 0.2016,1.5148 0.6123,2.1062 0.4105,0.591 0.9065,0.8807 1.4953,0.8807 h 6.6787 c 0.5267,0 1.0845,-0.2897 1.6812,-0.8807 0.5891,-0.5914 1.0693,-1.2892 1.4488,-2.1062 l 13.714,-29.2467 v 29.3113 c 0,0.8167 0.2019,1.5041 0.6203,2.0736 0.4184,0.5695 0.9215,0.8487 1.5105,0.8487 h 3.9051 c 0.589,0 1.0924,-0.2792 1.5108,-0.8487 0.4105,-0.5695 0.62,-1.2787 0.62,-2.1382 v -39.1961 c 0,-0.8166 -0.2095,-1.5151 -0.62,-2.0843 -0.4184,-0.5802 -0.9218,-0.8705 -1.5108,-0.8705 h -7.5388 c -0.589,0 -1.1934,0.2903 -1.813,0.8705 -0.6197,0.5692 -1.1157,1.2677 -1.48,2.0843 l -12.5518,27.012 v -27.012 c 0,-0.8166 -0.2089,-1.5151 -0.6197,-2.0843 -0.4184,-0.5802 -0.9221,-0.8705 -1.5108,-0.8705 h -3.998 c -0.5888,0 -1.0925,0.2903 -1.5185,0.8705 -0.4264,0.5692 -0.6356,1.2677 -0.6356,2.0843 z m -41.4515,-0.0538 5.7024,29.9667 c 1.5418,8.155 6.5625,12.2488 15.0698,12.2701 h 12.2341 c 0.5578,0 1.0227,-0.2897 1.3946,-0.8807 0.3719,-0.5914 0.5579,-1.268 0.5579,-2.0416 v -39.3145 c 0,-0.8274 -0.2092,-1.5146 -0.6353,-2.0628 -0.4263,-0.559 -0.9297,-0.8382 -1.5185,-0.8382 h -4.2692 c -0.6197,0 -1.1311,0.2792 -1.5341,0.8382 -0.4031,0.5482 -0.6044,1.2572 -0.6044,2.1166 v 7.9402 h -16.139 l -1.5189,-7.9402 c -0.1471,-0.8594 -0.4878,-1.5684 -1.0224,-2.1166 -0.527,-0.559 -1.0848,-0.8382 -1.6736,-0.8382 h -4.4784 c -0.5888,0 -1.0072,0.2364 -1.2705,0.7092 -0.2557,0.4726 -0.3799,0.881 -0.3719,1.2462 0.008,0.3548 0.0309,0.6664 0.0774,0.9456 z m 11.9395,16.9013 h 14.4578 v 16.4285 h -6.4619 c -1.4564,0 -2.7274,-0.5695 -3.8043,-1.7195 -1.0846,-1.1384 -1.8131,-2.6751 -2.1926,-4.6092 z m -45.9142,-16.8475 v 39.1961 c 0,0.817 0.2013,1.5148 0.612,2.1062 0.4107,0.591 0.9068,0.8807 1.4953,0.8807 h 17.3245 c 9.1505,0 13.7293,-5.8448 13.7293,-17.5456 0,-11.7006 -4.5788,-17.5459 -13.7293,-17.5459 h -10.878 v -7.0915 c 0,-0.8166 -0.2012,-1.5151 -0.6196,-2.0843 -0.4184,-0.5802 -0.9221,-0.8705 -1.5112,-0.8705 h -4.2692 c -0.5885,0 -1.0922,0.2903 -1.5183,0.8705 -0.4266,0.5692 -0.6355,1.2677 -0.6355,2.0843 z m 8.5538,15.9985 h 8.2902 c 2.5413,0 4.4706,0.591 5.7878,1.7734 1.317,1.1922 1.9758,3.4698 1.9758,6.8655 0,3.3845 -0.6588,5.6729 -1.9758,6.8658 -1.3172,1.1817 -3.2465,1.7728 -5.7878,1.7728 h -8.2902 z m -50.0057,-16.0523 5.7028,29.9667 c 1.5417,8.155 6.5625,12.2488 15.0698,12.2701 h 12.2338 c 0.5578,0 1.0227,-0.2897 1.3946,-0.8807 0.3719,-0.5914 0.5579,-1.268 0.5579,-2.0416 v -39.3145 c 0,-0.8274 -0.2089,-1.5146 -0.635,-2.0628 -0.4263,-0.559 -0.9298,-0.8382 -1.5188,-0.8382 h -4.2693 c -0.6196,0 -1.131,0.2792 -1.5341,0.8382 -0.4028,0.5482 -0.6043,1.2572 -0.6043,2.1166 v 7.9402 h -16.1388 l -1.5188,-7.9402 c -0.1471,-0.8594 -0.4878,-1.5684 -1.0227,-2.1166 -0.5267,-0.559 -1.0846,-0.8382 -1.6736,-0.8382 h -4.4782 c -0.589,0 -1.0074,0.2364 -1.2705,0.7092 -0.2559,0.4726 -0.3801,0.881 -0.3719,1.2462 0.008,0.3548 0.0306,0.6664 0.0771,0.9456 z m 11.9398,16.9013 h 14.4576 v 16.4285 h -6.4616 c -1.4567,0 -2.7275,-0.5695 -3.8044,-1.7195 -1.0845,-1.1384 -1.813,-2.6751 -2.1926,-4.6092 z m -13.032,-18.4485 c 0,-0.9025 -0.3872,-1.3538 -1.1545,-1.3538 h -5.4468 c -0.5731,0 -1.2087,0.2903 -1.8983,0.8705 -0.6897,0.5692 -1.2164,1.2677 -1.5806,2.0843 l -3.8586,8.3807 c -1.5882,3.4381 -3.5095,5.1576 -5.7642,5.1576 h -5.5398 v -13.5383 c 0,-0.8166 -0.2015,-1.5151 -0.6199,-2.0843 -0.4184,-0.5802 -0.9221,-0.8705 -1.5109,-0.8705 h -4.2692 c -0.5888,0 -1.0922,0.2903 -1.5183,0.8705 -0.4266,0.5692 -0.6355,1.2677 -0.6355,2.0843 v 39.1961 c 0,0.817 0.2013,1.5148 0.612,2.1062 0.4108,0.591 0.9065,0.8807 1.4953,0.8807 h 18.7268 c 3.4713,0 6.3071,-1.2892 8.5309,-3.8679 2.2155,-2.5787 3.3236,-6.0707 3.3236,-10.4545 0,-6.1029 -2.8511,-9.9385 -8.5615,-11.4859 0.9062,-0.4618 1.7512,-1.2572 2.518,-2.3746 0.775,-1.1279 1.6583,-2.7615 2.6575,-4.8994 l 4.1298,-9.1007 c 0.2477,-0.5802 0.3642,-1.1171 0.3642,-1.601 z M 386.797,317.389 h 9.6693 c 1.5653,0 2.9364,0.4301 4.1221,1.2895 1.1929,0.8592 1.7819,2.2349 1.7819,4.1258 0,1.891 -0.589,3.2667 -1.7819,4.1259 -1.1857,0.8594 -2.5568,1.2895 -4.1221,1.2895 h -9.6693 z m -46.8674,-22.4991 v 39.1856 c 0,0.8594 0.2089,1.5791 0.6352,2.1705 0.4261,0.591 0.9298,0.8807 1.5185,0.8807 h 12.691 c 6.5707,0 11.3431,-1.8156 14.3343,-5.4578 2.9905,-3.6426 4.4858,-9.3479 4.4858,-17.127 0,-7.7794 -1.4953,-13.4736 -4.4858,-17.1054 -2.9912,-3.6317 -7.7636,-5.4476 -14.3343,-5.4476 h -12.691 c -0.5887,0 -1.0924,0.2792 -1.5185,0.8382 -0.4263,0.5482 -0.6352,1.2354 -0.6352,2.0628 z m 8.5535,6.006 h 6.0435 c 4.0674,0 6.8414,1.0316 8.3061,3.0838 1.4641,2.0631 2.2002,5.5769 2.2002,10.5622 0,4.9853 -0.7361,8.5096 -2.2002,10.5832 -1.4647,2.063 -4.2387,3.0946 -8.3061,3.0946 h -6.0435 z m -50.0054,-6.006 5.7027,29.9667 c 1.5418,8.155 6.5622,12.2488 15.0696,12.2701 h 12.234 c 0.5579,0 1.0228,-0.2897 1.3947,-0.8807 0.3719,-0.5914 0.5578,-1.268 0.5578,-2.0416 v -39.3145 c 0,-0.8274 -0.2089,-1.5146 -0.6349,-2.0628 -0.4266,-0.559 -0.9298,-0.8382 -1.5188,-0.8382 h -4.2693 c -0.6196,0 -1.131,0.2792 -1.5341,0.8382 -0.4031,0.5482 -0.6043,1.2572 -0.6043,2.1166 v 7.9402 H 308.736 l -1.5185,-7.9402 c -0.1471,-0.8594 -0.4881,-1.5684 -1.0228,-2.1166 -0.5269,-0.559 -1.0848,-0.8382 -1.6735,-0.8382 h -4.4782 c -0.589,0 -1.0074,0.2364 -1.2708,0.7092 -0.2557,0.4726 -0.3798,0.881 -0.3719,1.2462 0.008,0.3548 0.0309,0.6664 0.0774,0.9456 z m 11.9395,16.9013 h 14.4579 v 16.4285 h -6.4619 c -1.4564,0 -2.7272,-0.5695 -3.8044,-1.7195 -1.0845,-1.1384 -1.8127,-2.6751 -2.1926,-4.6092 z m 282.9031,0.1703 H 578.8624 V 328.39 h 6.4619 c 1.4564,0 2.7275,-0.5695 3.8044,-1.7192 1.0845,-1.1384 1.813,-2.6751 2.1926,-4.6091 z"
       style="fill:#00aeef;fill-opacity:1;fill-rule:evenodd;stroke:none"
       id="path10" />
    <path
       d="m 223.4764,355.5643 c -0.0417,0.1044 0.0184,0.1577 0.0604,0.262 l 7.7125,17.7831 c 0.0323,0.0578 0.0717,0.068 0.1389,0.0663 0.0722,-0.0138 0.1184,-0.049 0.1394,-0.1043 l 14.3785,-34.2558 c -0.519,-0.6968 -5.0108,-2.6087 -14.3277,-3.1164 z m 25.8451,-23.6483 c 0.027,0.0111 0.1676,0.034 0.2155,0.0349 m -2.6051,-33.4182 c -0.4989,1.8162 -0.9419,3.2289 -1.3286,4.2361 l -12.1382,29.0081 -19.8159,0.0192 c -0.4824,0 -0.8725,0.4119 -0.8725,0.9216 0,0.5094 0.3901,0.9215 0.8725,0.9215 l 31.231,0.9978 m 2.0517,-36.1043 c 0.3561,-1.2977 0.3901,-2.4956 0.1004,-3.5941 -0.1902,-0.8016 -0.4465,-1.5995 -0.7693,-2.3938 -0.0349,-0.0785 -0.0567,-0.1485 -0.0664,-0.2103 -0.01,-0.0664 0.01,-0.1208 0.0576,-0.1613 0.0516,-0.0358 0.1255,-0.0505 0.2225,-0.0451 l 18.7551,0.0709 c 0.1205,0.002 0.1928,0.0314 0.2549,0.0666 0.081,0.0487 0.1264,0.1528 0.0932,0.233 l -16.4871,39.2644 0.3744,0.0184 c 3.5759,0.2956 7.1805,0.5428 10.6368,1.6265 5.1698,1.4873 9.1896,4.1255 12.0588,7.9146 2.5711,3.1626 3.8359,7.5436 3.7939,13.1417 -0.1562,4.7634 -2.3204,9.1522 -6.4922,13.1692 -5.9547,5.2314 -14.7597,6.0735 -22.2176,6.6762 -0.3898,0.047 -0.4972,0.0581 -0.5905,-0.387 -0.004,-0.0635 0.0147,-0.1125 0.0576,-0.1465 9.1023,-1.1259 14.9238,-9.9383 14.9238,-19.8564 0,-10.1322 -7.3718,-18.4451 -16.7576,-19.2827 M 193.896,292.2018 c 6.4295,-0.0164 12.8588,-0.0332 19.2883,-0.0496 0.0567,0.006 0.0899,0.0394 0.0976,0.0986 0.009,0.1418 -0.0287,0.258 -0.1117,0.3481 -0.0227,0.0221 -0.0454,0.0454 -0.0715,0.0618 -0.026,0.0176 -0.0558,0.0295 -0.1037,0.0471 -0.0479,0.0176 -0.1151,0.0422 -0.2007,0.0737 -0.0865,0.0314 -0.1928,0.072 -0.2801,0.106 -0.0881,0.034 -0.1596,0.0626 -0.2834,0.1171 -0.1239,0.0544 -0.3019,0.1363 -0.4799,0.2165 -1.7884,0.8275 -3.2837,2.2686 -4.4847,4.3237 -1.1917,2.5056 -1.8479,4.6979 -1.969,6.575 -0.3716,3.8942 -0.1519,7.6918 0.6577,11.3933 0.0252,0.1227 0.0516,0.2469 0.0793,0.375 0.0114,0.0737 -0.0105,0.1273 -0.0654,0.1613 -0.055,0.0295 -0.1038,0.0405 -0.1457,0.0343 -0.061,-0.0131 -0.1063,-0.0519 -0.137,-0.1171 l -6.7609,-13.3452 -4.934,-9.7376 -0.2233,-0.4413 c -0.0386,-0.1302 0.002,-0.2104 0.1281,-0.2407"
       style="fill:#ed1c24;fill-opacity:1;fill-rule:evenodd;stroke:none"
       id="path12" />
  </g>
</svg>
